<?xml version="1.0" standalone="no"?><svg xmlns="http://www.w3.org/2000/svg" viewBox="0 0 1440 320"><path fill="#7E4F25" fill-opacity="1" d="M0,96L10,90.7C20,85,40,75,60,74.7C80,75,100,85,120,106.7C140,128,160,160,180,165.3C200,171,220,149,240,160C260,171,280,213,300,229.3C320,245,340,235,360,213.3C380,192,400,160,420,170.7C440,181,460,235,480,234.7C500,235,520,181,540,154.7C560,128,580,128,600,154.7C620,181,640,235,660,245.3C680,256,700,224,720,218.7C740,213,760,235,780,240C800,245,820,235,840,208C860,181,880,139,900,154.7C920,171,940,245,960,266.7C980,288,1000,256,1020,208C1040,160,1060,96,1080,96C1100,96,1120,160,1140,202.7C1160,245,1180,267,1200,277.3C1220,288,1240,288,1260,282.7C1280,277,1300,267,1320,266.7C1340,267,1360,277,1380,240C1400,203,1420,117,1430,74.7L1440,32L1440,320L1430,320C1420,320,1400,320,1380,320C1360,320,1340,320,1320,320C1300,320,1280,320,1260,320C1240,320,1220,320,1200,320C1180,320,1160,320,1140,320C1120,320,1100,320,1080,320C1060,320,1040,320,1020,320C1000,320,980,320,960,320C940,320,920,320,900,320C880,320,860,320,840,320C820,320,800,320,780,320C760,320,740,320,720,320C700,320,680,320,660,320C640,320,620,320,600,320C580,320,560,320,540,320C520,320,500,320,480,320C460,320,440,320,420,320C400,320,380,320,360,320C340,320,320,320,300,320C280,320,260,320,240,320C220,320,200,320,180,320C160,320,140,320,120,320C100,320,80,320,60,320C40,320,20,320,10,320L0,320Z"></path></svg>