<?xml version="1.0" standalone="no"?><svg xmlns="http://www.w3.org/2000/svg" viewBox="0 0 1440 320"><path fill="#432918" fill-opacity="1" d="M0,160L11.4,138.7C22.9,117,46,75,69,90.7C91.4,107,114,181,137,202.7C160,224,183,192,206,186.7C228.6,181,251,203,274,197.3C297.1,192,320,160,343,154.7C365.7,149,389,171,411,197.3C434.3,224,457,256,480,261.3C502.9,267,526,245,549,240C571.4,235,594,245,617,256C640,267,663,277,686,256C708.6,235,731,181,754,165.3C777.1,149,800,171,823,176C845.7,181,869,171,891,186.7C914.3,203,937,245,960,240C982.9,235,1006,181,1029,170.7C1051.4,160,1074,192,1097,202.7C1120,213,1143,203,1166,202.7C1188.6,203,1211,213,1234,234.7C1257.1,256,1280,288,1303,272C1325.7,256,1349,192,1371,149.3C1394.3,107,1417,85,1429,74.7L1440,64L1440,0L1428.6,0C1417.1,0,1394,0,1371,0C1348.6,0,1326,0,1303,0C1280,0,1257,0,1234,0C1211.4,0,1189,0,1166,0C1142.9,0,1120,0,1097,0C1074.3,0,1051,0,1029,0C1005.7,0,983,0,960,0C937.1,0,914,0,891,0C868.6,0,846,0,823,0C800,0,777,0,754,0C731.4,0,709,0,686,0C662.9,0,640,0,617,0C594.3,0,571,0,549,0C525.7,0,503,0,480,0C457.1,0,434,0,411,0C388.6,0,366,0,343,0C320,0,297,0,274,0C251.4,0,229,0,206,0C182.9,0,160,0,137,0C114.3,0,91,0,69,0C45.7,0,23,0,11,0L0,0Z"></path></svg>