<?xml version="1.0" standalone="no"?><svg xmlns="http://www.w3.org/2000/svg" viewBox="0 0 1440 320"><path fill="#EEEEEE" fill-opacity="1" d="M0,224L15,208C30,192,60,160,90,170.7C120,181,150,235,180,240C210,245,240,203,270,192C300,181,330,203,360,208C390,213,420,203,450,218.7C480,235,510,277,540,266.7C570,256,600,192,630,176C660,160,690,192,720,213.3C750,235,780,245,810,218.7C840,192,870,128,900,122.7C930,117,960,171,990,176C1020,181,1050,139,1080,122.7C1110,107,1140,117,1170,138.7C1200,160,1230,192,1260,197.3C1290,203,1320,181,1350,165.3C1380,149,1410,139,1425,133.3L1440,128L1440,320L1425,320C1410,320,1380,320,1350,320C1320,320,1290,320,1260,320C1230,320,1200,320,1170,320C1140,320,1110,320,1080,320C1050,320,1020,320,990,320C960,320,930,320,900,320C870,320,840,320,810,320C780,320,750,320,720,320C690,320,660,320,630,320C600,320,570,320,540,320C510,320,480,320,450,320C420,320,390,320,360,320C330,320,300,320,270,320C240,320,210,320,180,320C150,320,120,320,90,320C60,320,30,320,15,320L0,320Z"></path></svg>