<?xml version="1.0" standalone="no"?><svg xmlns="http://www.w3.org/2000/svg" viewBox="0 0 1440 320"><path fill="#432918" fill-opacity="1" d="M0,160L13.3,144C26.7,128,53,96,80,96C106.7,96,133,128,160,154.7C186.7,181,213,203,240,197.3C266.7,192,293,160,320,138.7C346.7,117,373,107,400,112C426.7,117,453,139,480,133.3C506.7,128,533,96,560,85.3C586.7,75,613,85,640,96C666.7,107,693,117,720,106.7C746.7,96,773,64,800,53.3C826.7,43,853,53,880,90.7C906.7,128,933,192,960,197.3C986.7,203,1013,149,1040,149.3C1066.7,149,1093,203,1120,208C1146.7,213,1173,171,1200,176C1226.7,181,1253,235,1280,224C1306.7,213,1333,139,1360,122.7C1386.7,107,1413,149,1427,170.7L1440,192L1440,320L1426.7,320C1413.3,320,1387,320,1360,320C1333.3,320,1307,320,1280,320C1253.3,320,1227,320,1200,320C1173.3,320,1147,320,1120,320C1093.3,320,1067,320,1040,320C1013.3,320,987,320,960,320C933.3,320,907,320,880,320C853.3,320,827,320,800,320C773.3,320,747,320,720,320C693.3,320,667,320,640,320C613.3,320,587,320,560,320C533.3,320,507,320,480,320C453.3,320,427,320,400,320C373.3,320,347,320,320,320C293.3,320,267,320,240,320C213.3,320,187,320,160,320C133.3,320,107,320,80,320C53.3,320,27,320,13,320L0,320Z"></path></svg>