<?xml version="1.0" standalone="no"?><svg xmlns="http://www.w3.org/2000/svg" viewBox="0 0 1440 320"><path fill="#7E4F25" fill-opacity="1" d="M0,96L13.3,112C26.7,128,53,160,80,149.3C106.7,139,133,85,160,85.3C186.7,85,213,139,240,144C266.7,149,293,107,320,112C346.7,117,373,171,400,213.3C426.7,256,453,288,480,272C506.7,256,533,192,560,165.3C586.7,139,613,149,640,154.7C666.7,160,693,160,720,154.7C746.7,149,773,139,800,112C826.7,85,853,43,880,32C906.7,21,933,43,960,69.3C986.7,96,1013,128,1040,144C1066.7,160,1093,160,1120,138.7C1146.7,117,1173,75,1200,69.3C1226.7,64,1253,96,1280,133.3C1306.7,171,1333,213,1360,202.7C1386.7,192,1413,128,1427,96L1440,64L1440,0L1426.7,0C1413.3,0,1387,0,1360,0C1333.3,0,1307,0,1280,0C1253.3,0,1227,0,1200,0C1173.3,0,1147,0,1120,0C1093.3,0,1067,0,1040,0C1013.3,0,987,0,960,0C933.3,0,907,0,880,0C853.3,0,827,0,800,0C773.3,0,747,0,720,0C693.3,0,667,0,640,0C613.3,0,587,0,560,0C533.3,0,507,0,480,0C453.3,0,427,0,400,0C373.3,0,347,0,320,0C293.3,0,267,0,240,0C213.3,0,187,0,160,0C133.3,0,107,0,80,0C53.3,0,27,0,13,0L0,0Z"></path></svg>