<?xml version="1.0" standalone="no"?><svg xmlns="http://www.w3.org/2000/svg" viewBox="0 0 1440 320"><path fill="#C99E67" fill-opacity="1" d="M0,288L8,245.3C16,203,32,117,48,90.7C64,64,80,96,96,106.7C112,117,128,107,144,112C160,117,176,139,192,160C208,181,224,203,240,208C256,213,272,203,288,192C304,181,320,171,336,160C352,149,368,139,384,149.3C400,160,416,192,432,170.7C448,149,464,75,480,48C496,21,512,43,528,80C544,117,560,171,576,202.7C592,235,608,245,624,234.7C640,224,656,192,672,149.3C688,107,704,53,720,26.7C736,0,752,0,768,10.7C784,21,800,43,816,58.7C832,75,848,85,864,90.7C880,96,896,96,912,133.3C928,171,944,245,960,234.7C976,224,992,128,1008,112C1024,96,1040,160,1056,170.7C1072,181,1088,139,1104,138.7C1120,139,1136,181,1152,192C1168,203,1184,181,1200,197.3C1216,213,1232,267,1248,277.3C1264,288,1280,256,1296,218.7C1312,181,1328,139,1344,149.3C1360,160,1376,224,1392,208C1408,192,1424,96,1432,48L1440,0L1440,320L1432,320C1424,320,1408,320,1392,320C1376,320,1360,320,1344,320C1328,320,1312,320,1296,320C1280,320,1264,320,1248,320C1232,320,1216,320,1200,320C1184,320,1168,320,1152,320C1136,320,1120,320,1104,320C1088,320,1072,320,1056,320C1040,320,1024,320,1008,320C992,320,976,320,960,320C944,320,928,320,912,320C896,320,880,320,864,320C848,320,832,320,816,320C800,320,784,320,768,320C752,320,736,320,720,320C704,320,688,320,672,320C656,320,640,320,624,320C608,320,592,320,576,320C560,320,544,320,528,320C512,320,496,320,480,320C464,320,448,320,432,320C416,320,400,320,384,320C368,320,352,320,336,320C320,320,304,320,288,320C272,320,256,320,240,320C224,320,208,320,192,320C176,320,160,320,144,320C128,320,112,320,96,320C80,320,64,320,48,320C32,320,16,320,8,320L0,320Z"></path></svg>