<?xml version="1.0" standalone="no"?><svg xmlns="http://www.w3.org/2000/svg" viewBox="0 0 1440 320"><path fill="#C99E67" fill-opacity="1" d="M0,256L15,234.7C30,213,60,171,90,160C120,149,150,171,180,176C210,181,240,171,270,149.3C300,128,330,96,360,96C390,96,420,128,450,165.3C480,203,510,245,540,240C570,235,600,181,630,181.3C660,181,690,235,720,245.3C750,256,780,224,810,192C840,160,870,128,900,101.3C930,75,960,53,990,80C1020,107,1050,181,1080,218.7C1110,256,1140,256,1170,261.3C1200,267,1230,277,1260,277.3C1290,277,1320,267,1350,261.3C1380,256,1410,256,1425,256L1440,256L1440,0L1425,0C1410,0,1380,0,1350,0C1320,0,1290,0,1260,0C1230,0,1200,0,1170,0C1140,0,1110,0,1080,0C1050,0,1020,0,990,0C960,0,930,0,900,0C870,0,840,0,810,0C780,0,750,0,720,0C690,0,660,0,630,0C600,0,570,0,540,0C510,0,480,0,450,0C420,0,390,0,360,0C330,0,300,0,270,0C240,0,210,0,180,0C150,0,120,0,90,0C60,0,30,0,15,0L0,0Z"></path></svg>